# xmcd CD database file
#
# Track frame offsets:
#	150
#	25204
#	56389
#	83050
#	113723
#	149594
#	190262
#	226276
#	270007
#
# Disc length: 4021 seconds
#
# Revision: 0
# Processed by: cddbd v1.5.2PL0 Copyright (c) Steve Scherf et al.
# Submitted via: CDex 1.70beta2
#
DISCID=6c0fb309
DTITLE=Outersect - Caldera
DYEAR=1900
DGENRE=New Age
TTITLE0=Dil La Liya
TTITLE1=Light Universe
TTITLE2=Litany
TTITLE3=All Eyes
TTITLE4=Ayesha
TTITLE5=La Ilaha Il Allah
TTITLE6=Empty Arrow
TTITLE7=Seismic Weasel
TTITLE8=Bliss Ma
EXTD=
EXTT0=
EXTT1=
EXTT2=
EXTT3=
EXTT4=
EXTT5=
EXTT6=
EXTT7=
EXTT8=
PLAYORDER=
